<?xml version="1.0" encoding="UTF-8" ?>
<!DOCTYPE svg PUBLIC "-//W3C//DTD SVG 1.1//EN" "http://www.w3.org/Graphics/SVG/1.1/DTD/svg11.dtd">
<svg width="350pt" height="350pt" viewBox="0 0 350 350" version="1.1" xmlns="http://www.w3.org/2000/svg">
<g id="#fffafaff">
</g>
<g id="#350b23ff">
<path fill="#350b23" opacity="1.00" d=" M 162.25 30.04 C 171.02 29.99 179.80 30.11 188.57 29.94 C 188.55 33.72 188.48 37.49 188.39 41.27 C 179.66 41.41 170.94 41.17 162.22 41.42 C 162.27 37.63 162.27 33.84 162.25 30.04 Z" />
<path fill="#350b23" opacity="1.00" d=" M 121.93 41.64 C 135.28 42.02 148.64 41.60 162.00 41.85 C 161.96 72.11 162.07 102.37 161.95 132.63 C 157.64 132.61 153.34 132.60 149.03 132.59 C 148.52 106.07 148.95 79.52 148.82 52.99 C 140.03 53.22 131.13 52.27 122.42 53.42 C 121.05 79.70 122.33 106.22 121.79 132.58 C 117.51 132.57 113.22 132.57 108.94 132.59 C 108.43 113.71 108.86 94.81 108.74 75.93 C 99.97 76.02 91.05 75.04 82.38 76.38 C 80.77 79.30 81.57 82.81 81.41 86.00 C 81.48 130.34 81.43 174.67 81.44 219.01 C 81.47 220.58 81.56 222.22 82.36 223.63 C 86.28 225.25 90.67 224.24 94.79 224.41 C 95.27 231.81 94.20 239.36 95.36 246.67 C 99.27 248.39 103.77 247.22 107.93 247.45 C 108.19 281.63 107.96 315.82 108.04 350.00 L 94.98 350.00 C 94.85 315.77 95.26 281.52 94.78 247.31 C 90.45 247.11 86.11 247.37 81.78 247.28 C 81.66 239.62 81.97 231.96 81.68 224.32 C 77.26 224.05 72.83 224.27 68.41 224.13 C 68.52 174.75 68.45 125.36 68.44 75.98 C 72.85 75.89 77.28 76.19 81.69 75.74 C 81.98 72.04 81.42 68.27 82.11 64.60 C 90.92 64.25 99.76 64.61 108.59 64.48 C 108.60 60.65 108.59 56.81 108.60 52.98 C 112.99 52.92 117.40 53.22 121.78 52.77 C 122.21 49.08 121.98 45.35 121.93 41.64 Z" />
<path fill="#350b23" opacity="1.00" d=" M 189.23 41.91 C 202.53 41.54 215.84 42.03 229.14 41.67 C 229.13 45.37 228.98 49.08 229.26 52.77 C 233.67 53.18 238.11 52.95 242.53 52.95 C 242.44 87.06 242.28 121.17 242.17 155.29 C 237.78 155.38 233.39 155.38 229.00 155.28 C 230.01 123.54 229.26 91.76 229.59 60.00 C 229.54 57.79 229.71 55.41 228.58 53.41 C 219.84 52.28 210.93 53.22 202.13 52.99 C 202.05 79.54 202.32 106.09 201.99 132.64 C 197.78 132.62 193.56 132.60 189.35 132.56 C 189.12 102.34 189.37 72.12 189.23 41.91 Z" />
<path fill="#350b23" opacity="1.00" d=" M 256.14 104.25 C 264.74 103.82 273.35 104.21 281.96 104.06 C 281.94 108.30 281.68 112.57 282.20 116.80 C 286.43 117.32 290.69 117.06 294.94 117.04 C 294.91 137.68 294.91 158.33 294.94 178.97 C 290.77 179.20 286.35 178.21 282.33 179.33 C 281.21 183.36 282.20 187.78 281.97 191.97 C 277.78 192.20 273.36 191.21 269.33 192.33 C 268.21 196.36 269.20 200.78 268.97 204.97 C 264.78 205.20 260.36 204.22 256.33 205.33 C 255.21 209.36 256.20 213.78 255.97 217.96 C 251.77 218.99 241.83 214.68 242.86 222.00 C 243.00 226.64 242.77 231.28 242.45 235.91 C 238.05 235.90 233.66 235.89 229.27 235.92 C 229.49 230.00 229.34 224.05 230.32 218.19 C 234.64 218.33 239.02 218.55 243.24 217.44 C 243.25 213.36 243.23 209.28 243.22 205.20 C 246.93 205.22 250.65 205.25 254.36 205.36 C 255.02 204.69 255.69 204.02 256.36 203.36 C 256.25 199.64 256.22 195.92 256.20 192.20 C 259.92 192.22 263.64 192.25 267.36 192.36 C 268.02 191.69 268.69 191.02 269.36 190.36 C 269.25 186.65 269.22 182.93 269.20 179.22 C 273.26 179.24 277.33 179.24 281.39 179.22 C 282.82 174.26 282.16 169.08 282.23 164.00 C 281.79 148.50 283.13 132.81 281.58 117.42 C 274.13 115.93 266.41 117.12 258.85 116.69 C 256.51 116.32 255.66 119.11 255.89 120.94 C 256.09 132.55 255.65 144.16 255.79 155.78 C 251.58 155.79 247.38 155.78 243.18 155.76 C 243.11 142.86 243.56 129.95 242.94 117.06 C 247.22 117.06 251.52 117.33 255.78 116.80 C 256.25 112.63 255.91 108.43 256.14 104.25 Z" />
<path fill="#350b23" opacity="1.00" d=" M 215.69 236.12 C 220.22 236.00 224.74 236.02 229.27 235.92 C 229.16 239.69 229.04 243.46 228.79 247.22 C 224.57 247.33 220.34 247.13 216.13 247.31 C 215.74 248.50 215.54 249.73 215.53 250.99 C 215.54 283.99 215.55 317.00 215.53 350.00 L 202.52 350.00 C 202.77 315.83 202.65 281.65 202.58 247.48 C 206.70 247.38 210.96 248.12 214.98 246.92 C 216.59 243.56 215.64 239.70 215.69 236.12 Z" />
</g>
<g id="#d08b66ff">
<path fill="#d08b66" opacity="1.00" d=" M 188.57 29.94 C 188.70 33.74 188.78 37.53 188.86 41.32 C 202.28 41.92 215.72 41.20 229.14 41.67 C 215.84 42.03 202.53 41.54 189.23 41.91 C 189.37 72.12 189.12 102.34 189.35 132.56 C 193.56 132.60 197.78 132.62 201.99 132.64 C 202.32 106.09 202.05 79.54 202.13 52.99 C 210.93 53.22 219.84 52.28 228.58 53.41 C 229.71 55.41 229.54 57.79 229.59 60.00 C 229.26 91.76 230.01 123.54 229.00 155.28 C 233.39 155.38 237.78 155.38 242.17 155.29 C 242.28 121.17 242.44 87.06 242.53 52.95 C 242.99 74.32 242.19 95.71 242.94 117.06 C 243.56 129.95 243.11 142.86 243.18 155.76 C 247.38 155.78 251.58 155.79 255.79 155.78 C 255.65 144.16 256.09 132.55 255.89 120.94 C 255.66 119.11 256.51 116.32 258.85 116.69 C 266.41 117.12 274.13 115.93 281.58 117.42 C 283.13 132.81 281.79 148.50 282.23 164.00 C 282.16 169.08 282.82 174.26 281.39 179.22 C 277.33 179.24 273.26 179.24 269.20 179.22 C 269.22 182.93 269.25 186.65 269.36 190.36 C 268.69 191.02 268.02 191.69 267.36 192.36 C 263.64 192.25 259.92 192.22 256.20 192.20 C 256.22 195.92 256.25 199.64 256.36 203.36 C 255.69 204.02 255.02 204.69 254.36 205.36 C 250.65 205.25 246.93 205.22 243.22 205.20 C 243.23 209.28 243.25 213.36 243.24 217.44 C 239.02 218.55 234.64 218.33 230.32 218.19 C 229.34 224.05 229.49 230.00 229.27 235.92 C 224.74 236.02 220.22 236.00 215.69 236.12 C 215.64 239.70 216.59 243.56 214.98 246.92 C 210.96 248.12 206.70 247.38 202.58 247.48 C 202.65 281.65 202.77 315.83 202.52 350.00 L 108.04 350.00 C 107.96 315.82 108.19 281.63 107.93 247.45 C 103.77 247.22 99.27 248.39 95.36 246.67 C 94.20 239.36 95.27 231.81 94.79 224.41 C 90.67 224.24 86.28 225.25 82.36 223.63 C 81.56 222.22 81.47 220.58 81.44 219.01 C 81.43 174.67 81.48 130.34 81.41 86.00 C 81.57 82.81 80.77 79.30 82.38 76.38 C 91.05 75.04 99.97 76.02 108.74 75.93 C 108.86 94.81 108.43 113.71 108.94 132.59 C 113.22 132.57 117.51 132.57 121.79 132.58 C 122.33 106.22 121.05 79.70 122.42 53.42 C 131.13 52.27 140.03 53.22 148.82 52.99 C 148.95 79.52 148.52 106.07 149.03 132.59 C 153.34 132.60 157.64 132.61 161.95 132.63 C 162.07 102.37 161.96 72.11 162.00 41.85 C 148.64 41.60 135.28 42.02 121.93 41.64 C 135.35 41.30 148.79 41.76 162.22 41.42 C 170.94 41.17 179.66 41.41 188.39 41.27 C 188.48 37.49 188.55 33.72 188.57 29.94 Z" />
</g>
</svg>
