<?xml version="1.0" encoding="UTF-8" ?>
<!DOCTYPE svg PUBLIC "-//W3C//DTD SVG 1.1//EN" "http://www.w3.org/Graphics/SVG/1.1/DTD/svg11.dtd">
<svg width="600pt" height="600pt" viewBox="0 0 600 600" version="1.1" xmlns="http://www.w3.org/2000/svg">
<g id="#ffffffff">
</g>
<g id="#c38360ff">
<path fill="#c38360" opacity="1.00" d=" M 222.27 106.22 C 222.77 99.08 222.12 91.92 222.58 84.78 C 222.93 91.86 222.39 98.94 222.85 106.01 C 239.28 106.02 255.71 106.02 272.14 106.01 C 272.59 98.94 272.06 91.86 272.41 84.79 C 272.88 91.93 272.23 99.08 272.72 106.22 C 281.20 106.38 289.68 106.41 298.15 106.21 C 298.37 99.20 298.07 92.18 298.25 85.17 C 298.68 85.09 299.54 84.94 299.97 84.87 C 300.03 91.92 299.98 98.97 299.99 106.02 C 316.71 106.01 333.43 106.02 350.15 106.01 C 350.61 98.94 350.07 91.86 350.42 84.78 C 350.88 91.92 350.26 99.07 350.73 106.21 C 358.87 106.40 367.01 106.40 375.16 106.21 C 375.36 99.18 375.15 92.15 375.23 85.12 C 375.92 85.06 377.29 84.94 377.98 84.88 C 378.02 91.92 377.99 98.97 378.00 106.01 C 394.38 106.01 410.76 106.02 427.15 106.01 C 427.60 98.94 427.08 91.86 427.42 84.78 C 427.87 91.92 427.24 99.08 427.72 106.22 C 436.05 106.51 444.38 106.18 452.72 106.34 C 452.83 106.75 453.05 107.57 453.16 107.99 C 444.77 108.01 436.38 107.99 428.00 108.00 C 427.97 137.74 428.08 167.49 427.89 197.23 C 410.31 197.49 392.70 197.56 375.12 197.19 C 374.90 167.46 375.04 137.73 375.00 108.00 C 367.00 108.00 359.00 108.00 351.00 108.00 C 350.97 137.74 351.09 167.49 350.89 197.23 C 333.31 197.50 315.70 197.54 298.11 197.21 C 297.91 167.47 298.04 137.74 298.00 108.00 C 289.67 108.00 281.33 108.00 273.00 108.00 C 272.94 152.57 273.14 197.14 272.81 241.70 C 256.13 241.76 239.45 241.68 222.77 241.86 C 222.64 248.83 222.50 255.80 222.85 262.77 C 247.97 262.93 273.16 262.16 298.25 263.15 C 298.99 270.29 298.50 277.47 298.52 284.62 C 304.25 286.00 310.17 285.13 316.00 285.34 C 344.24 285.18 372.50 285.69 400.73 285.09 C 400.55 277.86 400.76 270.62 400.59 263.39 C 366.48 263.25 332.35 263.73 298.25 263.15 C 297.79 248.23 297.95 233.27 298.16 218.34 C 349.90 218.18 401.64 218.48 453.37 218.19 L 453.41 218.88 C 453.70 256.28 454.11 293.79 453.18 331.15 C 444.81 331.58 436.43 331.29 428.06 331.29 C 427.87 345.93 428.11 360.59 427.86 375.23 C 427.15 382.82 427.98 390.45 427.37 398.02 C 426.98 390.49 427.91 382.91 426.75 375.42 C 418.65 378.35 409.71 375.71 401.29 376.98 C 401.16 383.95 401.77 390.96 400.91 397.90 C 393.26 399.14 385.47 397.97 377.76 398.52 C 377.63 465.68 377.65 532.84 377.75 600.00 L 195.28 600.00 C 195.21 532.75 195.58 465.49 195.09 398.26 C 186.76 398.23 178.39 398.79 170.09 397.86 C 169.13 383.31 169.82 368.66 169.68 354.07 C 161.41 353.84 153.14 354.03 144.87 353.99 C 144.40 368.65 144.92 383.34 144.63 398.01 C 144.02 383.29 144.88 368.51 144.24 353.78 C 136.08 353.23 127.90 353.92 119.75 353.45 C 127.83 353.08 135.93 353.66 144.02 353.16 C 144.10 323.06 143.84 292.96 144.14 262.87 C 161.15 262.56 178.16 262.67 195.17 262.84 C 195.44 255.85 195.36 248.85 195.22 241.85 C 178.19 241.64 161.16 241.88 144.14 241.75 C 143.82 204.40 144.09 167.04 144.00 129.69 C 135.91 129.17 127.81 129.78 119.72 129.39 C 127.89 128.80 136.08 129.58 144.26 129.02 C 144.78 121.52 144.32 114.00 144.46 106.49 C 170.38 106.01 196.34 106.58 222.27 106.22 M 144.82 107.99 C 144.50 114.98 144.53 122.00 144.82 129.00 C 161.85 128.44 178.92 128.73 195.96 128.83 C 196.06 166.23 195.98 203.63 196.00 241.04 C 204.66 241.11 213.33 241.11 222.00 241.05 C 222.00 196.70 222.00 152.35 222.00 108.00 C 196.28 108.00 170.55 108.02 144.82 107.99 Z" />
</g>
<g id="#360c24ff">
<path fill="#360c24" opacity="1.00" d=" M 222.58 84.78 C 239.19 84.81 255.80 84.80 272.41 84.79 C 272.06 91.86 272.59 98.94 272.14 106.01 C 255.71 106.02 239.28 106.02 222.85 106.01 C 222.39 98.94 222.93 91.86 222.58 84.78 Z" />
<path fill="#360c24" opacity="1.00" d=" M 299.97 84.87 C 316.78 84.69 333.60 84.86 350.42 84.78 C 350.07 91.86 350.61 98.94 350.15 106.01 C 333.43 106.02 316.71 106.01 299.99 106.02 C 299.98 98.97 300.03 91.92 299.97 84.87 Z" />
<path fill="#360c24" opacity="1.00" d=" M 377.98 84.88 C 394.45 84.67 410.94 84.87 427.42 84.78 C 427.08 91.86 427.60 98.94 427.15 106.01 C 410.76 106.02 394.38 106.01 378.00 106.01 C 377.99 98.97 378.02 91.92 377.98 84.88 Z" />
<path fill="#360c24" opacity="1.00" d=" M 144.82 107.99 C 170.55 108.02 196.28 108.00 222.00 108.00 C 222.00 152.35 222.00 196.70 222.00 241.05 C 213.33 241.11 204.66 241.11 196.00 241.04 C 195.98 203.63 196.06 166.23 195.96 128.83 C 178.92 128.73 161.85 128.44 144.82 129.00 C 144.53 122.00 144.50 114.98 144.82 107.99 Z" />
<path fill="#360c24" opacity="1.00" d=" M 273.00 108.00 C 281.33 108.00 289.67 108.00 298.00 108.00 C 298.04 137.74 297.91 167.47 298.11 197.21 C 315.70 197.54 333.31 197.50 350.89 197.23 C 351.09 167.49 350.97 137.74 351.00 108.00 C 359.00 108.00 367.00 108.00 375.00 108.00 C 375.04 137.73 374.90 167.46 375.12 197.19 C 392.70 197.56 410.31 197.49 427.89 197.23 C 428.08 167.49 427.97 137.74 428.00 108.00 C 436.38 107.99 444.77 108.01 453.16 107.99 C 453.45 144.71 453.02 181.46 453.37 218.19 C 401.64 218.48 349.90 218.18 298.16 218.34 C 297.95 233.27 297.79 248.23 298.25 263.15 C 273.16 262.16 247.97 262.93 222.85 262.77 C 222.50 255.80 222.64 248.83 222.77 241.86 C 239.45 241.68 256.13 241.76 272.81 241.70 C 273.14 197.14 272.94 152.57 273.00 108.00 Z" />
<path fill="#360c24" opacity="1.00" d=" M 119.72 129.39 C 127.81 129.78 135.91 129.17 144.00 129.69 C 144.09 167.04 143.82 204.40 144.14 241.75 C 161.16 241.88 178.19 241.64 195.22 241.85 C 195.36 248.85 195.44 255.85 195.17 262.84 C 178.16 262.67 161.15 262.56 144.14 262.87 C 143.84 292.96 144.10 323.06 144.02 353.16 C 135.93 353.66 127.83 353.08 119.75 353.45 C 119.75 278.76 119.81 204.08 119.72 129.39 Z" />
<path fill="#360c24" opacity="1.00" d=" M 453.41 218.88 C 461.85 218.74 470.30 218.67 478.74 218.91 C 478.65 256.22 478.70 293.53 478.72 330.84 C 470.23 330.72 461.73 330.74 453.24 330.79 C 453.23 345.61 453.27 360.42 453.23 375.24 C 444.77 375.28 436.31 375.27 427.86 375.23 C 428.11 360.59 427.87 345.93 428.06 331.29 C 436.43 331.29 444.81 331.58 453.18 331.15 C 454.11 293.79 453.70 256.28 453.41 218.88 Z" />
<path fill="#360c24" opacity="1.00" d=" M 298.25 263.15 C 332.35 263.73 366.48 263.25 400.59 263.39 C 400.76 270.62 400.55 277.86 400.73 285.09 C 372.50 285.69 344.24 285.18 316.00 285.34 C 310.17 285.13 304.25 286.00 298.52 284.62 C 298.50 277.47 298.99 270.29 298.25 263.15 Z" />
<path fill="#360c24" opacity="1.00" d=" M 144.87 353.99 C 153.14 354.03 161.41 353.84 169.68 354.07 C 169.82 368.66 169.13 383.31 170.09 397.86 C 161.61 397.71 153.10 397.51 144.63 398.01 C 144.92 383.34 144.40 368.65 144.87 353.99 Z" />
<path fill="#360c24" opacity="1.00" d=" M 401.29 376.98 C 409.71 375.71 418.65 378.35 426.75 375.42 C 427.91 382.91 426.98 390.49 427.37 398.02 C 418.57 397.51 409.72 397.67 400.91 397.90 C 401.77 390.96 401.16 383.95 401.29 376.98 Z" />
<path fill="#360c24" opacity="1.00" d=" M 170.09 397.86 C 178.39 398.79 186.76 398.23 195.09 398.26 C 195.58 465.49 195.21 532.75 195.28 600.00 L 170.30 600.00 C 170.17 532.62 170.58 465.23 170.09 397.86 Z" />
<path fill="#360c24" opacity="1.00" d=" M 377.76 398.52 C 385.47 397.97 393.26 399.14 400.91 397.90 C 400.45 465.26 400.84 532.63 400.71 600.00 L 377.75 600.00 C 377.65 532.84 377.63 465.68 377.76 398.52 Z" />
</g>
</svg>
