<?xml version="1.0" encoding="UTF-8" ?>
<!DOCTYPE svg PUBLIC "-//W3C//DTD SVG 1.1//EN" "http://www.w3.org/Graphics/SVG/1.1/DTD/svg11.dtd">
<svg width="599pt" height="600pt" viewBox="0 0 599 600" version="1.1" xmlns="http://www.w3.org/2000/svg">
<g id="#fff9f9ff">
</g>
<g id="#c18260ff">
<path fill="#c18260" opacity="1.00" d=" M 215.86 72.19 C 216.86 66.08 215.26 59.86 216.40 53.79 C 216.74 59.85 216.06 65.94 216.67 71.99 C 230.51 72.17 244.36 71.79 258.20 72.17 C 265.35 72.84 272.53 72.49 279.70 72.36 L 279.72 72.91 C 273.10 72.74 266.47 72.48 259.86 72.94 C 259.66 85.01 259.66 97.11 259.86 109.18 C 266.35 109.44 272.85 109.39 279.35 109.23 C 279.96 97.41 279.22 85.57 279.74 73.75 C 280.19 86.11 279.32 98.51 280.27 110.86 C 280.48 129.23 280.30 147.61 280.35 165.99 C 287.19 166.74 294.11 166.15 300.98 166.36 C 301.83 147.88 301.01 129.33 301.38 110.83 C 301.98 129.49 300.98 148.20 301.87 166.85 C 302.21 185.68 301.84 204.52 302.06 223.35 C 309.03 223.29 316.01 223.45 322.98 223.20 C 323.11 210.52 322.82 197.83 323.13 185.15 C 329.95 184.74 336.80 185.26 343.63 184.91 C 343.65 166.61 343.53 148.31 343.69 130.01 C 337.01 129.32 330.29 130.00 323.60 129.63 C 330.48 129.21 337.40 129.93 344.27 129.19 C 351.22 128.78 358.18 129.14 365.13 128.98 C 365.35 110.31 365.31 91.62 365.15 72.95 C 358.21 72.48 351.24 72.72 344.29 72.93 L 344.30 72.34 C 351.79 72.49 359.32 72.85 366.80 72.17 C 380.63 71.79 394.47 72.18 408.30 71.98 C 408.91 65.94 408.29 59.86 408.61 53.80 C 409.35 59.90 408.31 66.07 409.12 72.18 C 416.18 73.08 423.32 72.14 430.40 72.62 C 423.37 73.05 416.32 72.27 409.31 73.02 C 409.32 97.92 409.67 122.84 409.14 147.73 L 408.83 148.57 C 401.91 148.33 394.98 148.47 388.05 148.38 C 387.36 160.62 387.87 172.92 387.82 185.19 C 387.67 185.37 387.36 185.74 387.21 185.93 C 380.48 185.81 373.74 185.67 367.02 185.94 C 366.91 211.02 367.16 236.10 366.86 261.18 C 330.64 261.58 294.35 261.56 258.13 261.19 C 257.84 229.80 258.10 198.41 257.98 167.02 C 251.10 166.81 244.18 167.35 237.32 166.74 C 237.06 148.17 237.49 129.59 237.13 111.02 C 230.17 110.94 223.22 111.08 216.26 110.97 C 208.99 110.56 201.69 111.25 194.43 110.57 C 193.99 98.07 194.29 85.53 194.26 73.02 C 194.67 72.92 195.49 72.73 195.90 72.63 C 196.13 84.75 195.92 96.87 196.01 108.99 C 202.59 109.08 209.18 109.10 215.76 108.98 C 215.55 96.99 215.61 85.00 215.73 73.01 C 209.14 72.33 202.51 72.99 195.90 72.63 C 202.55 72.19 209.24 73.03 215.86 72.19 Z" />
<path fill="#c18260" opacity="1.00" d=" M 194.27 167.19 C 194.70 167.11 195.56 166.96 195.99 166.88 C 196.02 172.92 195.96 178.95 196.01 184.99 C 209.96 185.14 223.92 184.78 237.87 185.16 C 238.06 223.31 238.15 261.50 237.78 299.65 C 223.79 299.90 209.79 299.61 195.80 299.91 C 195.62 305.84 195.49 311.80 195.89 317.73 C 216.57 317.68 237.25 317.73 257.93 317.70 C 258.20 304.94 257.72 292.16 258.18 279.42 C 301.21 279.04 344.26 279.53 387.30 279.17 L 387.50 279.90 C 388.03 309.59 387.56 339.31 387.71 369.01 C 387.53 370.69 388.11 372.65 387.03 374.12 C 380.46 374.73 373.85 374.16 367.27 374.36 C 366.63 386.96 367.23 399.60 366.87 412.22 C 366.58 418.38 366.93 424.56 366.70 430.73 C 366.27 430.74 365.43 430.76 365.00 430.77 C 364.96 424.73 365.07 418.70 364.95 412.66 C 358.08 412.85 351.19 412.43 344.34 412.97 C 344.21 418.42 344.48 423.87 344.38 429.32 C 343.69 430.00 343.00 430.69 342.32 431.38 C 336.20 431.46 330.08 431.27 323.96 431.35 C 323.38 487.54 323.82 543.79 323.75 600.00 L 172.29 600.00 C 172.15 543.77 172.62 487.51 172.06 431.30 C 165.93 431.28 159.81 431.46 153.68 431.38 C 152.99 430.69 152.30 430.00 151.62 429.32 C 151.65 417.64 151.62 405.96 151.62 394.29 C 144.75 393.65 137.81 394.09 130.92 394.02 C 130.38 406.30 130.75 418.62 130.79 430.91 C 129.79 418.77 131.11 406.13 130.20 393.82 C 123.08 393.08 115.92 393.94 108.79 393.42 C 115.85 393.09 122.94 393.75 129.99 393.10 C 130.14 368.03 129.79 342.95 130.16 317.89 C 144.13 317.50 158.14 317.73 172.12 317.82 C 172.44 311.86 172.40 305.87 172.16 299.91 C 158.16 299.56 144.15 300.04 130.16 299.70 C 129.78 268.38 130.13 237.05 129.98 205.72 C 122.93 205.05 115.84 205.74 108.77 205.40 C 115.91 204.84 123.09 205.71 130.23 205.00 C 130.90 198.54 130.36 192.03 130.40 185.55 C 151.62 184.77 172.91 185.22 194.14 185.36 C 194.43 179.31 194.04 173.24 194.27 167.19 M 130.96 185.94 C 130.35 192.26 130.55 198.67 130.86 205.01 C 144.87 204.46 158.92 204.70 172.94 204.85 C 173.09 236.23 172.95 267.62 173.01 299.00 C 180.00 299.11 187.00 299.10 193.99 299.01 C 194.00 261.27 194.00 223.54 193.99 185.80 C 173.00 186.04 151.94 185.82 130.96 185.94 M 259.72 318.89 C 259.69 324.67 259.58 330.45 259.79 336.23 C 287.71 336.18 315.88 336.87 343.67 335.89 C 343.57 330.06 343.67 324.24 343.61 318.42 C 315.69 318.75 287.42 317.79 259.72 318.89 Z" />
</g>
<g id="#350b23ff">
<path fill="#350b23" opacity="1.00" d=" M 216.40 53.79 C 230.32 53.89 244.24 53.74 258.16 53.86 C 258.30 59.96 258.20 66.07 258.20 72.17 C 244.36 71.79 230.51 72.17 216.67 71.99 C 216.06 65.94 216.74 59.85 216.40 53.79 Z" />
<path fill="#350b23" opacity="1.00" d=" M 366.83 53.86 C 380.76 53.75 394.68 53.87 408.61 53.80 C 408.29 59.86 408.91 65.94 408.30 71.98 C 394.47 72.18 380.63 71.79 366.80 72.17 C 366.80 66.07 366.69 59.96 366.83 53.86 Z" />
<path fill="#350b23" opacity="1.00" d=" M 195.90 72.63 C 202.51 72.99 209.14 72.33 215.73 73.01 C 215.61 85.00 215.55 96.99 215.76 108.98 C 209.18 109.10 202.59 109.08 196.01 108.99 C 195.92 96.87 196.13 84.75 195.90 72.63 Z" />
<path fill="#350b23" opacity="1.00" d=" M 259.86 72.94 C 266.47 72.48 273.10 72.74 279.72 72.91 L 279.74 73.75 C 279.22 85.57 279.96 97.41 279.35 109.23 C 272.85 109.39 266.35 109.44 259.86 109.18 C 259.66 97.11 259.66 85.01 259.86 72.94 Z" />
<path fill="#350b23" opacity="1.00" d=" M 344.29 72.93 C 351.24 72.72 358.21 72.48 365.15 72.95 C 365.31 91.62 365.35 110.31 365.13 128.98 C 358.18 129.14 351.22 128.78 344.27 129.19 C 344.35 110.44 344.30 91.69 344.29 72.93 Z" />
<path fill="#350b23" opacity="1.00" d=" M 409.31 73.02 C 416.32 72.27 423.37 73.05 430.40 72.62 C 430.40 97.77 430.51 122.93 430.34 148.09 C 423.29 147.50 416.20 147.96 409.14 147.73 C 409.67 122.84 409.32 97.92 409.31 73.02 Z" />
<path fill="#350b23" opacity="1.00" d=" M 216.26 110.97 C 223.22 111.08 230.17 110.94 237.13 111.02 C 237.49 129.59 237.06 148.17 237.32 166.74 C 244.18 167.35 251.10 166.81 257.98 167.02 C 258.10 198.41 257.84 229.80 258.13 261.19 C 294.35 261.56 330.64 261.58 366.86 261.18 C 367.16 236.10 366.91 211.02 367.02 185.94 C 373.74 185.67 380.48 185.81 387.21 185.93 C 387.29 217.01 387.12 248.09 387.30 279.17 C 344.26 279.53 301.21 279.04 258.18 279.42 C 257.72 292.16 258.20 304.94 257.93 317.70 C 237.25 317.73 216.57 317.68 195.89 317.73 C 195.49 311.80 195.62 305.84 195.80 299.91 C 209.79 299.61 223.79 299.90 237.78 299.65 C 238.15 261.50 238.06 223.31 237.87 185.16 C 223.92 184.78 209.96 185.14 196.01 184.99 C 195.96 178.95 196.02 172.92 195.99 166.88 C 202.73 166.67 209.48 166.96 216.21 166.75 C 216.38 148.16 216.27 129.56 216.26 110.97 Z" />
<path fill="#350b23" opacity="1.00" d=" M 280.27 110.86 C 287.31 110.78 294.34 110.80 301.38 110.83 C 301.01 129.33 301.83 147.88 300.98 166.36 C 294.11 166.15 287.19 166.74 280.35 165.99 C 280.30 147.61 280.48 129.23 280.27 110.86 Z" />
<path fill="#350b23" opacity="1.00" d=" M 323.60 129.63 C 330.29 130.00 337.01 129.32 343.69 130.01 C 343.53 148.31 343.65 166.61 343.63 184.91 C 336.80 185.26 329.95 184.74 323.13 185.15 C 322.82 197.83 323.11 210.52 322.98 223.20 C 316.01 223.45 309.03 223.29 302.06 223.35 C 301.84 204.52 302.21 185.68 301.87 166.85 C 309.10 166.72 316.34 166.96 323.57 166.73 C 323.61 154.36 323.53 141.99 323.60 129.63 Z" />
<path fill="#350b23" opacity="1.00" d=" M 388.05 148.38 C 394.98 148.47 401.91 148.33 408.83 148.57 C 408.51 160.77 408.76 172.98 408.71 185.18 C 401.75 185.34 394.78 185.29 387.82 185.19 C 387.87 172.92 387.36 160.62 388.05 148.38 Z" />
<path fill="#350b23" opacity="1.00" d=" M 130.96 185.94 C 151.94 185.82 173.00 186.04 193.99 185.80 C 194.00 223.54 194.00 261.27 193.99 299.01 C 187.00 299.10 180.00 299.11 173.01 299.00 C 172.95 267.62 173.09 236.23 172.94 204.85 C 158.92 204.70 144.87 204.46 130.86 205.01 C 130.55 198.67 130.35 192.26 130.96 185.94 Z" />
<path fill="#350b23" opacity="1.00" d=" M 108.77 205.40 C 115.84 205.74 122.93 205.05 129.98 205.72 C 130.13 237.05 129.78 268.38 130.16 299.70 C 144.15 300.04 158.16 299.56 172.16 299.91 C 172.40 305.87 172.44 311.86 172.12 317.82 C 158.14 317.73 144.13 317.50 130.16 317.89 C 129.79 342.95 130.14 368.03 129.99 393.10 C 122.94 393.75 115.85 393.09 108.79 393.42 C 108.76 330.75 108.79 268.07 108.77 205.40 Z" />
<path fill="#350b23" opacity="1.00" d=" M 387.50 279.90 C 394.56 279.74 401.62 279.74 408.68 279.87 C 408.70 311.18 408.69 342.48 408.69 373.78 C 401.55 373.79 394.41 373.64 387.28 373.84 C 387.10 386.62 387.34 399.40 387.17 412.18 C 380.40 412.32 373.64 412.21 366.87 412.22 C 367.23 399.60 366.63 386.96 367.27 374.36 C 373.85 374.16 380.46 374.73 387.03 374.12 C 388.11 372.65 387.53 370.69 387.71 369.01 C 387.56 339.31 388.03 309.59 387.50 279.90 Z" />
<path fill="#350b23" opacity="1.00" d=" M 259.72 318.89 C 287.42 317.79 315.69 318.75 343.61 318.42 C 343.67 324.24 343.57 330.06 343.67 335.89 C 315.88 336.87 287.71 336.18 259.79 336.23 C 259.58 330.45 259.69 324.67 259.72 318.89 Z" />
<path fill="#350b23" opacity="1.00" d=" M 130.92 394.02 C 137.81 394.09 144.75 393.65 151.62 394.29 C 151.62 405.96 151.65 417.64 151.62 429.32 C 152.30 430.00 152.99 430.69 153.68 431.38 C 159.81 431.46 165.93 431.28 172.06 431.30 C 172.62 487.51 172.15 543.77 172.29 600.00 L 152.31 600.00 C 152.31 545.67 152.30 491.34 152.31 437.01 C 152.15 434.81 153.35 431.59 150.59 430.60 C 143.99 430.92 137.38 430.51 130.79 430.91 C 130.75 418.62 130.38 406.30 130.92 394.02 Z" />
<path fill="#350b23" opacity="1.00" d=" M 344.34 412.97 C 351.19 412.43 358.08 412.85 364.95 412.66 C 365.07 418.70 364.96 424.73 365.00 430.77 C 358.48 430.67 351.95 430.81 345.43 430.64 C 342.62 431.55 343.86 434.83 343.69 437.02 C 343.70 491.34 343.69 545.67 343.69 600.00 L 323.75 600.00 C 323.82 543.79 323.38 487.54 323.96 431.35 C 330.08 431.27 336.20 431.46 342.32 431.38 C 343.00 430.69 343.69 430.00 344.38 429.32 C 344.48 423.87 344.21 418.42 344.34 412.97 Z" />
</g>
</svg>
